<svg width="44" height="44" viewBox="0 0 44 44" xmlns="http://www.w3.org/2000/svg">
    <g fill="none" fill-rule="evenodd">
        <path d="M0 0h44v44H0z"/>
        <path d="M39.508 13.237h-4.042V9.123a2.176 2.176 0 0 0-4.353 0v4.114h-4.042a2.176 2.176 0 0 0 0 4.352h4.042v3.972a2.176 2.176 0 0 0 4.353 0v-3.972h4.042a2.176 2.176 0 0 0 0-4.352" fill="#FAD701"/>
        <path d="M27.79 18.84c-2.078.078-3.26-.778-3.715-2.383l-3.287 7.813-4.092-9.724c-.466-1.104-1.49-1.22-1.794-1.23H4.468c-1.188 0-2.152.987-2.152 2.205 0 1.217.964 2.205 2.152 2.205h2.976l.003 11.911c0 1.218.964 2.205 2.153 2.205s2.153-.987 2.153-2.205V17.726h.562s.981-.044 1.382.903l4.732 11.246c.418 1.02.915 1.961 2.352 1.967h.014c1.436-.006 1.934-.946 2.351-1.967L27.79 18.84z" fill="#FFF"/>
    </g>
</svg>
